<svg xmlns="http://www.w3.org/2000/svg" width="527" height="474" viewBox="0 0 527 474">
<g>
<path d="M 276.18 30.25 C278.38,32.86 279.69,35.00 279.09,35.00 C278.49,35.00 278.00,34.66 277.99,34.25 C277.98,33.84 276.10,31.53 273.80,29.13 C270.40,25.58 269.50,25.07 269.03,26.42 C268.60,27.65 267.86,26.89 266.22,23.52 C265.00,21.00 264.00,18.64 264.00,18.27 C264.00,17.31 271.42,24.61 276.18,30.25 ZM 321.80 268.25 C321.91,273.06 321.66,276.92 321.25,276.82 C320.84,276.73 317.35,273.48 313.50,269.60 C309.65,265.73 307.85,263.52 309.50,264.69 C311.15,265.86 313.82,268.21 315.44,269.91 C319.89,274.60 320.86,273.99 321.26,266.25 C321.59,259.86 321.62,259.97 321.80,268.25 ZM 218.00 108.88 C222.68,112.94 221.58,112.69 216.00,108.43 C213.00,106.14 210.79,105.16 209.35,105.49 C207.41,105.94 205.15,103.51 206.38,102.29 C207.09,101.58 214.27,105.65 218.00,108.88 ZM 258.50 226.54 L 261.50 227.84 L 258.00 227.80 C256.08,227.78 253.15,227.42 251.50,227.00 C248.71,226.29 248.67,226.23 251.00,226.10 C253.05,225.99 253.23,225.78 252.00,224.92 C250.15,223.62 253.92,224.57 258.50,226.54 ZM 327.51 89.20 C327.66,89.37 325.50,91.97 322.70,95.00 C319.29,98.69 318.53,99.25 320.40,96.70 C321.93,94.61 322.94,92.29 322.65,91.54 C322.33,90.69 323.09,89.94 324.68,89.54 C326.09,89.19 327.36,89.04 327.51,89.20 ZM 335.70 159.44 C334.75,159.07 333.98,159.54 333.66,160.68 C333.38,161.68 333.40,160.70 333.70,158.50 C334.52,152.66 335.29,152.32 336.53,157.26 C337.09,159.49 336.93,159.91 335.70,159.44 ZM 202.10 146.13 C201.40,145.02 201.01,145.12 200.04,146.63 C198.91,148.40 198.88,148.40 199.54,146.50 C199.92,145.40 200.45,143.71 200.73,142.75 C201.57,139.83 203.00,140.79 202.98,144.25 C202.97,146.48 202.70,147.07 202.10,146.13 Z" fill="rgb(224,108,108)"/>
<path d="M 445.75 326.24 C445.53,426.90 445.32,440.49 444.00,440.66 C443.17,440.76 439.80,439.97 436.50,438.91 C392.06,424.64 299.29,416.43 223.00,420.02 C166.13,422.70 124.18,428.16 92.00,437.08 C86.22,438.68 80.94,439.99 80.25,439.99 C79.26,440.00 79.00,416.34 79.00,325.00 C79.00,246.66 79.33,210.00 80.03,210.00 C80.60,210.00 83.64,210.86 86.78,211.91 C94.58,214.52 114.67,219.52 125.00,221.43 C143.56,224.86 177.24,229.12 202.50,231.24 C222.88,232.94 308.50,232.93 328.50,231.22 C364.43,228.14 386.39,225.27 414.50,219.97 C420.53,218.83 431.27,216.13 440.43,213.45 C443.14,212.65 445.51,212.00 445.69,212.00 C445.86,212.00 445.89,263.41 445.75,326.24 ZM 321.80 268.25 C321.62,259.97 321.59,259.86 321.26,266.25 C320.86,273.99 319.89,274.60 315.44,269.91 C313.82,268.21 311.15,265.86 309.50,264.69 C308.20,263.77 309.04,264.94 311.33,267.37 C304.17,261.16 297.74,258.24 288.57,256.82 C266.27,253.35 244.82,264.51 234.54,284.92 L 230.85 292.25 L 226.92 286.23 C220.85,276.95 211.49,268.82 200.77,263.53 C187.41,256.94 181.80,256.04 153.88,256.02 C131.37,256.00 130.15,256.10 127.59,258.11 C125.14,260.03 124.94,260.73 125.21,266.18 L 125.50 272.14 L 150.04 272.04 C183.28,271.90 191.80,273.87 205.10,284.76 C233.00,307.61 230.79,351.68 200.70,372.40 C191.88,378.48 183.26,381.14 170.40,381.74 C159.36,382.26 159.30,382.25 158.67,379.88 C158.31,378.57 158.02,365.91 158.01,351.75 L 158.00 326.00 L 144.00 326.00 L 144.00 382.00 L 125.00 382.00 L 125.00 386.85 C125.00,392.36 126.82,394.70 132.21,396.08 C134.02,396.55 145.75,396.69 158.28,396.39 C176.08,395.96 182.42,395.44 187.28,394.03 C201.58,389.86 211.52,383.70 221.16,373.03 C224.65,369.17 227.84,366.02 228.25,366.01 C228.66,366.00 229.00,371.20 229.00,377.55 C229.00,390.85 230.19,394.44 234.92,395.48 C238.59,396.29 241.80,394.67 243.05,391.37 C243.57,390.00 244.00,378.32 244.00,365.43 C244.00,352.55 244.31,342.00 244.70,342.00 C245.08,342.00 247.22,343.97 249.45,346.38 C251.68,348.78 257.77,354.71 263.00,359.56 C268.23,364.41 277.45,373.14 283.50,378.97 C298.49,393.42 301.67,396.00 304.50,396.00 C307.84,396.00 311.00,392.31 311.00,388.41 C311.00,385.58 309.34,383.63 296.92,371.89 L 282.83 358.57 L 290.22 357.00 C300.20,354.87 308.37,350.70 315.09,344.32 C318.16,341.40 320.97,339.31 321.34,339.67 C321.70,340.03 322.00,351.96 322.00,366.17 C322.00,391.13 322.07,392.07 324.11,394.11 C325.76,395.76 327.00,396.10 329.72,395.66 C335.84,394.66 335.93,394.24 335.97,365.75 L 336.00 340.00 L 360.37 340.00 C383.50,340.00 384.86,339.90 387.37,337.93 C389.37,336.35 390.00,334.96 390.00,332.13 C390.00,330.08 389.46,327.86 388.80,327.20 C387.95,326.35 381.69,326.00 367.05,325.99 C355.75,325.99 344.14,325.70 341.25,325.35 L 336.00 324.72 L 336.00 270.00 L 372.35 270.00 C407.50,270.00 408.75,269.93 410.51,267.99 C412.85,265.41 412.85,260.59 410.51,258.01 C408.74,256.06 407.51,256.00 367.57,256.00 C331.97,256.00 326.15,256.21 324.22,257.56 C322.21,258.97 322.00,259.95 322.00,268.06 C322.00,272.98 321.89,277.00 321.75,277.00 C321.72,277.00 321.59,276.90 321.38,276.72 C321.71,276.06 321.90,272.53 321.80,268.25 ZM 255.28 225.27 C252.38,224.23 250.62,223.95 252.00,224.92 C253.23,225.78 253.05,225.99 251.00,226.10 C248.96,226.21 248.74,226.27 250.59,226.76 C246.88,225.89 243.43,224.71 243.17,223.97 C242.99,223.45 240.07,221.70 236.67,220.07 C223.98,214.00 212.27,202.00 208.28,191.00 C206.05,184.86 204.75,179.00 205.62,179.00 C205.93,179.00 208.95,181.82 212.34,185.26 C218.29,191.32 223.42,194.91 224.53,193.80 C224.83,193.51 223.86,189.72 222.39,185.38 C220.05,178.48 219.71,175.88 219.66,164.50 C219.60,149.11 220.96,129.00 222.06,129.00 C223.18,129.00 226.56,134.88 227.97,139.30 C228.64,141.39 229.64,142.95 230.20,142.77 C230.76,142.58 232.27,139.07 233.56,134.96 C237.68,121.87 245.27,108.47 255.15,96.84 C257.54,94.02 261.30,89.59 263.50,87.00 C265.70,84.41 269.29,79.97 271.48,77.14 C273.67,74.31 275.81,72.00 276.23,72.00 C276.65,72.00 277.00,76.97 277.00,83.04 C277.00,99.78 280.30,113.46 288.21,129.50 C291.96,137.10 295.45,142.00 297.10,142.00 C297.52,142.00 298.38,139.51 299.01,136.46 C299.64,133.42 301.20,129.71 302.48,128.23 L 304.81 125.52 L 305.49 130.51 C305.86,133.26 307.31,139.77 308.71,145.00 C314.69,167.41 315.19,170.20 314.84,179.62 C314.53,188.11 314.19,189.41 310.26,197.08 C307.94,201.63 306.22,205.55 306.45,205.78 C306.81,206.14 311.77,203.00 319.75,197.35 C321.76,195.93 322.00,195.92 322.00,197.30 C322.00,202.25 305.44,216.26 293.17,221.69 C290.05,223.07 287.24,224.62 286.92,225.13 C286.10,226.46 279.00,227.49 279.00,226.28 C279.00,225.74 281.70,222.95 285.00,220.08 C288.30,217.21 292.42,212.80 294.15,210.28 C302.07,198.77 304.96,177.33 300.08,166.28 C298.82,163.41 297.16,160.54 296.39,159.91 C295.24,158.95 295.00,159.55 295.00,163.41 C295.00,168.09 293.06,174.23 291.22,175.37 C290.63,175.73 289.74,172.65 289.02,167.74 C287.14,154.86 284.30,147.74 275.89,134.83 C267.91,122.58 266.00,117.49 266.00,108.45 C266.00,103.33 264.94,102.85 262.22,106.75 C257.36,113.73 256.99,119.50 260.52,132.95 C264.13,146.70 263.70,151.35 257.98,160.38 C255.38,164.47 254.70,165.00 253.40,163.92 C251.11,162.01 249.32,158.04 248.50,153.00 C247.49,146.80 247.05,146.39 244.87,149.66 C237.69,160.42 237.03,181.40 243.38,196.43 C244.37,198.77 244.68,200.72 244.14,201.26 C243.03,202.37 236.54,199.12 232.79,195.57 C227.55,190.59 226.60,193.17 230.16,202.71 C233.23,210.95 243.23,220.86 251.50,223.86 C252.77,224.32 254.08,224.81 255.28,225.27 ZM 89.25 422.36 C89.94,422.65 93.88,422.80 98.00,422.69 L 105.50 422.50 L 106.08 406.00 L 88.00 406.00 L 88.00 413.92 C88.00,419.30 88.40,422.00 89.25,422.36 ZM 420.67 363.33 C421.85,364.52 435.53,364.07 436.80,362.80 C438.04,361.56 438.47,351.38 437.39,348.58 C436.91,347.31 435.12,347.00 428.39,347.00 L 420.00 347.00 L 420.00 354.83 C420.00,359.14 420.30,362.97 420.67,363.33 ZM 420.44 274.10 C421.43,275.10 434.06,275.04 435.95,274.03 C437.62,273.13 438.00,271.96 437.99,267.71 C437.96,258.01 437.95,258.00 428.38,258.00 L 420.00 258.00 L 420.00 265.83 C420.00,270.14 420.20,273.86 420.44,274.10 ZM 88.00 228.00 L 88.00 244.00 L 106.00 244.00 L 106.00 228.00 ZM 420.70 244.37 C421.09,244.76 425.03,244.95 429.45,244.79 L 437.50 244.50 L 437.50 228.50 L 428.75 228.21 L 420.00 227.92 L 420.00 235.79 C420.00,240.12 420.32,243.98 420.70,244.37 ZM 89.25 333.36 C89.94,333.65 93.88,333.80 98.00,333.69 L 105.50 333.50 L 105.79 325.88 C106.12,317.15 106.00,317.04 96.33,317.01 C88.18,316.99 88.00,317.17 88.00,325.52 C88.00,330.43 88.41,333.01 89.25,333.36 ZM 88.70 303.37 C89.09,303.76 93.03,303.95 97.45,303.79 L 105.50 303.50 L 105.79 295.86 L 106.08 288.22 L 101.79 287.79 C99.43,287.56 95.36,287.57 92.75,287.81 L 88.00 288.25 L 88.00 295.46 C88.00,299.42 88.32,302.98 88.70,303.37 ZM 420.67 392.33 C421.03,392.70 424.81,393.00 429.05,393.00 C437.92,393.00 437.96,392.95 437.99,382.75 L 438.00 377.00 L 420.00 377.00 L 420.00 384.33 C420.00,388.37 420.30,391.97 420.67,392.33 ZM 420.00 287.92 L 420.00 304.00 L 436.88 304.00 L 437.52 299.72 C437.87,297.37 438.01,293.88 437.83,291.97 L 437.50 288.50 ZM 88.70 392.37 C89.09,392.76 93.03,392.95 97.45,392.79 L 105.50 392.50 L 105.79 384.75 L 106.08 377.00 L 88.00 377.00 L 88.00 384.33 C88.00,388.37 88.32,391.98 88.70,392.37 ZM 88.70 362.37 C89.09,362.76 93.03,362.95 97.45,362.79 L 105.50 362.50 L 105.79 354.75 L 106.08 347.00 L 88.00 347.00 L 88.00 354.33 C88.00,358.37 88.32,361.98 88.70,362.37 ZM 88.70 273.37 C89.09,273.76 93.03,273.95 97.45,273.79 L 105.50 273.50 L 105.79 265.75 L 106.08 258.00 L 88.00 258.00 L 88.00 265.33 C88.00,269.37 88.32,272.98 88.70,273.37 ZM 420.67 333.33 C421.03,333.70 424.81,334.00 429.06,334.00 C437.82,334.00 438.00,333.84 438.00,326.00 C438.00,318.08 437.90,318.00 428.39,318.00 L 420.00 318.00 L 420.00 325.33 C420.00,329.37 420.30,332.97 420.67,333.33 ZM 420.67 422.33 C421.03,422.70 424.85,423.00 429.15,423.00 C438.15,423.00 438.37,422.75 437.81,412.95 L 437.50 407.50 L 420.00 406.92 L 420.00 414.29 C420.00,418.35 420.30,421.97 420.67,422.33 ZM 254.34 227.51 C255.61,227.68 256.95,227.79 258.00,227.80 L 259.83 227.82 C259.42,227.85 258.81,227.87 258.00,227.87 C257.01,227.87 255.73,227.73 254.34,227.51 ZM 258.50 226.54 C258.29,226.45 258.08,226.36 257.87,226.28 C258.60,226.56 259.16,226.80 259.50,226.95 C259.67,227.03 259.82,227.10 259.95,227.17 Z" fill="rgb(247,4,8)"/>
<path d="M 335.70 159.44 C336.67,159.81 336.97,159.63 336.78,158.44 C337.89,162.64 339.00,168.73 339.00,171.81 C339.00,181.68 334.65,194.09 327.89,203.51 C323.76,209.26 314.75,216.29 306.65,220.08 C301.68,222.40 290.04,225.48 283.63,226.49 C285.17,226.18 286.58,225.68 286.92,225.13 C287.24,224.62 290.05,223.07 293.17,221.69 C305.44,216.26 322.00,202.25 322.00,197.30 C322.00,195.92 321.76,195.93 319.75,197.35 C311.77,203.00 306.81,206.14 306.45,205.78 C306.22,205.55 307.94,201.63 310.26,197.08 C314.19,189.41 314.53,188.11 314.84,179.62 C315.19,170.20 314.69,167.41 308.71,145.00 C307.31,139.77 305.86,133.26 305.49,130.51 L 304.81 125.52 L 302.48 128.23 C301.20,129.71 299.64,133.42 299.01,136.46 C298.38,139.51 297.52,142.00 297.10,142.00 C295.45,142.00 291.96,137.10 288.21,129.50 C280.30,113.46 277.00,99.78 277.00,83.04 C277.00,76.97 276.65,72.00 276.23,72.00 C275.81,72.00 273.67,74.31 271.48,77.14 C269.29,79.97 265.70,84.41 263.50,87.00 C261.30,89.59 257.54,94.02 255.15,96.84 C245.27,108.47 237.68,121.87 233.56,134.96 C232.27,139.07 230.76,142.58 230.20,142.77 C229.64,142.95 228.64,141.39 227.97,139.30 C226.56,134.88 223.18,129.00 222.06,129.00 C220.96,129.00 219.60,149.11 219.66,164.50 C219.71,175.88 220.05,178.48 222.39,185.38 C223.86,189.72 224.83,193.51 224.53,193.80 C223.42,194.91 218.29,191.32 212.34,185.26 C208.95,181.82 205.93,179.00 205.62,179.00 C204.75,179.00 206.05,184.86 208.28,191.00 C212.27,202.00 223.98,214.00 236.67,220.07 C240.07,221.70 242.99,223.45 243.17,223.97 C243.43,224.71 246.88,225.89 250.59,226.76 C250.84,226.83 251.13,226.91 251.46,226.99 C249.76,226.69 247.90,226.32 246.00,225.88 C232.56,222.80 220.03,216.08 210.89,207.05 C200.15,196.42 196.46,188.46 195.37,173.50 C194.79,165.67 196.67,154.45 200.26,144.25 C200.30,144.13 200.34,144.02 200.38,143.91 C200.11,144.78 199.79,145.77 199.54,146.50 C198.88,148.40 198.91,148.40 200.04,146.63 C201.01,145.12 201.40,145.02 202.10,146.13 C202.70,147.07 202.97,146.48 202.98,144.25 C202.99,144.10 202.98,143.96 202.98,143.83 C202.99,144.13 203.00,144.46 203.00,144.82 C203.00,148.77 205.51,157.52 207.30,159.79 C208.90,161.82 209.73,160.02 210.44,153.00 C210.80,149.43 211.70,144.02 212.44,141.00 C215.99,126.55 215.19,118.21 209.36,108.68 C208.55,107.36 207.83,106.09 207.30,105.04 C207.90,105.44 208.65,105.65 209.35,105.49 C210.79,105.16 213.00,106.14 216.00,108.43 C221.54,112.66 222.66,112.94 218.10,108.97 C222.39,112.39 224.00,112.75 224.00,110.35 C224.00,109.45 225.64,105.29 227.65,101.10 C230.87,94.37 233.15,91.66 247.46,77.50 C265.51,59.63 268.39,55.38 269.97,44.21 C271.17,35.74 270.63,32.34 266.85,24.78 L 266.82 24.70 C268.05,27.05 268.65,27.49 269.03,26.42 C269.50,25.07 270.40,25.58 273.80,29.13 C276.10,31.53 277.98,33.84 277.99,34.25 C278.00,34.66 278.49,35.00 279.09,35.00 C279.42,35.00 279.18,34.35 278.52,33.34 C279.57,34.63 280.60,35.91 281.55,37.16 C289.87,47.98 296.04,59.52 298.41,68.67 C300.34,76.10 300.41,89.03 298.57,98.50 C297.82,102.35 297.42,105.84 297.67,106.26 C297.92,106.68 300.69,104.81 303.82,102.11 C307.94,98.55 317.48,92.82 323.04,90.29 C322.62,90.65 322.48,91.08 322.65,91.54 C322.94,92.29 321.93,94.61 320.40,96.70 C318.53,99.25 319.29,98.69 322.70,95.00 C323.49,94.15 324.23,93.33 324.88,92.58 C324.40,93.18 323.86,93.83 323.26,94.50 C311.27,107.95 310.26,117.48 318.73,137.29 C323.88,149.35 324.97,154.35 324.99,165.83 C325.00,173.65 325.30,176.07 326.25,175.75 C328.35,175.05 332.76,165.06 333.47,159.37 C333.67,157.75 333.97,156.30 334.28,155.31 C334.08,156.07 333.90,157.14 333.70,158.50 C333.40,160.70 333.38,161.68 333.66,160.68 C333.98,159.54 334.75,159.07 335.70,159.44 ZM 278.79 306.09 C271.20,309.99 262.41,307.83 256.57,300.61 C254.13,297.59 253.52,295.78 253.19,290.59 C252.71,283.08 254.37,278.99 259.74,274.51 C263.03,271.77 263.94,271.53 271.00,271.53 C277.87,271.53 279.08,271.82 282.35,274.31 C293.62,282.91 291.77,299.41 278.79,306.09 ZM 297.48 204.25 C296.50,206.45 295.39,208.48 294.15,210.28 C292.43,212.78 288.36,217.15 285.07,220.02 L 285.15 219.95 C288.79,216.69 293.14,211.88 294.80,209.26 C295.78,207.73 296.67,206.04 297.48,204.25 ZM 268.51 21.99 C266.18,19.68 264.34,18.07 264.04,18.19 C264.33,17.93 266.08,19.48 268.51,21.99 ZM 327.00 89.14 C326.54,89.16 325.80,89.28 325.00,89.47 C325.81,89.17 326.44,89.00 326.83,89.00 C326.93,89.00 326.99,89.05 327.00,89.14 ZM 213.45 105.56 C211.35,104.21 209.22,103.05 207.85,102.51 C209.20,103.00 211.27,104.12 213.45,105.56 ZM 300.08 166.28 C298.82,163.42 297.16,160.56 296.40,159.91 C297.16,160.56 298.82,163.42 300.08,166.28 C301.14,168.67 301.83,171.54 302.19,174.69 C301.82,171.55 301.13,168.68 300.08,166.28 ZM 258.14 227.87 C258.88,227.86 259.44,227.85 259.83,227.82 L 260.07 227.82 C259.70,227.90 259.04,227.92 258.14,227.87 ZM 202.93 143.08 C202.82,142.09 202.56,141.43 202.24,141.16 C202.57,141.27 202.81,141.91 202.93,143.08 ZM 279.30 226.63 C279.57,226.75 280.02,226.81 280.57,226.82 C279.92,226.83 279.48,226.77 279.30,226.63 ZM 264.00 18.29 C264.02,18.52 264.30,19.27 264.74,20.30 C264.28,19.24 264.00,18.51 264.00,18.32 C264.00,18.31 264.00,18.30 264.00,18.29 ZM 206.33 102.34 C206.31,102.36 206.30,102.37 206.29,102.39 C206.29,102.38 206.30,102.37 206.31,102.36 C206.31,102.35 206.32,102.35 206.33,102.34 Z" fill="rgb(249,98,8)"/>
<path d="M 0.00 237.00 L 0.00 0.00 L 263.50 0.00 L 527.00 0.00 L 527.00 237.00 L 527.00 474.00 L 263.50 474.00 L 0.00 474.00 L 0.00 237.00 ZM 445.75 326.24 C445.89,263.41 445.86,212.00 445.69,212.00 C445.51,212.00 443.14,212.65 440.43,213.45 C431.27,216.13 420.53,218.83 414.50,219.97 C386.39,225.27 364.43,228.14 328.50,231.22 C308.50,232.93 222.88,232.94 202.50,231.24 C177.24,229.12 143.56,224.86 125.00,221.43 C114.67,219.52 94.58,214.52 86.78,211.91 C83.64,210.86 80.60,210.00 80.03,210.00 C79.33,210.00 79.00,246.66 79.00,325.00 C79.00,416.34 79.26,440.00 80.25,439.99 C80.94,439.99 86.22,438.68 92.00,437.08 C124.18,428.16 166.13,422.70 223.00,420.02 C299.29,416.43 392.06,424.64 436.50,438.91 C439.80,439.97 443.17,440.76 444.00,440.66 C445.32,440.49 445.53,426.90 445.75,326.24 ZM 259.50 226.95 C258.40,226.45 254.80,225.06 251.50,223.86 C243.23,220.86 233.23,210.95 230.16,202.71 C226.60,193.17 227.55,190.59 232.79,195.57 C236.54,199.12 243.03,202.37 244.14,201.26 C244.68,200.72 244.37,198.77 243.38,196.43 C237.03,181.40 237.69,160.42 244.87,149.66 C247.05,146.39 247.49,146.80 248.50,153.00 C249.32,158.04 251.11,162.01 253.40,163.92 C254.70,165.00 255.38,164.47 257.98,160.38 C263.70,151.35 264.13,146.70 260.52,132.95 C256.99,119.50 257.36,113.73 262.22,106.75 C264.94,102.85 266.00,103.33 266.00,108.45 C266.00,117.49 267.91,122.58 275.89,134.83 C284.30,147.74 287.14,154.86 289.02,167.74 C289.74,172.65 290.63,175.73 291.22,175.37 C293.06,174.23 295.00,168.09 295.00,163.41 C295.00,159.55 295.24,158.95 296.39,159.91 C297.16,160.54 298.81,163.41 300.08,166.28 C304.81,177.05 302.31,197.46 294.80,209.26 C293.14,211.88 288.79,216.69 285.15,219.95 C281.51,223.20 278.86,226.20 279.27,226.61 C280.53,227.86 299.85,223.26 306.65,220.08 C314.75,216.29 323.76,209.26 327.89,203.51 C334.65,194.09 339.00,181.68 339.00,171.81 C339.00,166.83 336.11,154.00 334.99,154.00 C334.53,154.00 333.84,156.42 333.47,159.37 C332.76,165.06 328.35,175.05 326.25,175.75 C325.30,176.07 325.00,173.65 324.99,165.83 C324.97,154.35 323.88,149.35 318.73,137.29 C310.26,117.48 311.27,107.95 323.26,94.50 C325.95,91.48 327.56,89.00 326.83,89.00 C324.02,89.01 309.24,97.42 303.82,102.11 C300.69,104.81 297.92,106.68 297.67,106.26 C297.42,105.84 297.82,102.35 298.57,98.50 C300.41,89.03 300.34,76.10 298.41,68.67 C296.04,59.52 289.87,47.98 281.55,37.16 C274.52,28.01 264.00,16.72 264.00,18.32 C264.00,18.72 265.28,21.63 266.85,24.78 C270.63,32.34 271.17,35.74 269.97,44.21 C268.39,55.38 265.51,59.63 247.46,77.50 C233.15,91.66 230.87,94.37 227.65,101.10 C225.64,105.29 224.00,109.45 224.00,110.35 C224.00,112.83 222.28,112.36 217.67,108.62 C213.01,104.85 207.08,101.58 206.31,102.36 C206.03,102.64 207.40,105.49 209.36,108.68 C215.19,118.21 215.99,126.55 212.44,141.00 C211.70,144.02 210.80,149.43 210.44,153.00 C209.73,160.02 208.90,161.82 207.30,159.79 C205.51,157.52 203.00,148.77 203.00,144.82 C203.00,140.14 201.79,139.89 200.26,144.25 C196.67,154.45 194.79,165.67 195.37,173.50 C196.46,188.46 200.15,196.42 210.89,207.05 C220.03,216.08 232.56,222.80 246.00,225.88 C255.17,227.98 263.14,228.61 259.50,226.95 ZM 89.25 422.36 C88.40,422.00 88.00,419.30 88.00,413.92 L 88.00 406.00 L 97.04 406.00 L 106.08 406.00 L 105.79 414.25 L 105.50 422.50 L 98.00 422.69 C93.88,422.80 89.94,422.65 89.25,422.36 ZM 420.67 422.33 C420.30,421.97 420.00,418.35 420.00,414.29 L 420.00 406.92 L 428.75 407.21 L 437.50 407.50 L 437.81 412.95 C438.37,422.75 438.15,423.00 429.15,423.00 C424.85,423.00 421.03,422.70 420.67,422.33 ZM 132.21 396.08 C126.82,394.70 125.00,392.36 125.00,386.85 L 125.00 382.00 L 134.50 382.00 L 144.00 382.00 L 144.00 354.00 L 144.00 326.00 L 151.00 326.00 L 158.00 326.00 L 158.01 351.75 C158.02,365.91 158.31,378.57 158.67,379.88 C159.30,382.25 159.36,382.26 170.40,381.74 C183.26,381.14 191.88,378.48 200.70,372.40 C230.79,351.68 233.00,307.61 205.10,284.76 C191.80,273.87 183.28,271.90 150.04,272.04 L 125.50 272.14 L 125.21 266.18 C124.94,260.73 125.14,260.03 127.59,258.11 C130.15,256.10 131.37,256.00 153.88,256.02 C181.80,256.04 187.41,256.94 200.77,263.53 C211.49,268.82 220.85,276.95 226.92,286.23 L 230.85 292.25 L 234.54 284.92 C244.82,264.51 266.27,253.35 288.57,256.82 C298.99,258.44 305.88,261.99 314.32,270.11 C318.27,273.90 321.61,277.00 321.75,277.00 C321.89,277.00 322.00,272.98 322.00,268.06 C322.00,259.95 322.21,258.97 324.22,257.56 C326.15,256.21 331.97,256.00 367.57,256.00 C407.51,256.00 408.74,256.06 410.51,258.01 C412.85,260.59 412.85,265.41 410.51,267.99 C408.75,269.93 407.50,270.00 372.35,270.00 L 336.00 270.00 L 336.00 297.36 L 336.00 324.72 L 341.25 325.35 C344.14,325.70 355.75,325.99 367.05,325.99 C381.69,326.00 387.95,326.35 388.80,327.20 C389.46,327.86 390.00,330.08 390.00,332.13 C390.00,334.96 389.37,336.35 387.37,337.93 C384.86,339.90 383.50,340.00 360.37,340.00 L 336.00 340.00 L 335.97 365.75 C335.93,394.24 335.84,394.66 329.72,395.66 C327.00,396.10 325.76,395.76 324.11,394.11 C322.07,392.07 322.00,391.13 322.00,366.17 C322.00,351.96 321.70,340.03 321.34,339.67 C320.97,339.31 318.16,341.40 315.09,344.32 C308.37,350.70 300.20,354.87 290.22,357.00 L 282.83 358.57 L 296.92 371.89 C309.34,383.63 311.00,385.58 311.00,388.41 C311.00,392.31 307.84,396.00 304.50,396.00 C301.67,396.00 298.49,393.42 283.50,378.97 C277.45,373.14 268.23,364.41 263.00,359.56 C257.77,354.71 251.68,348.78 249.45,346.38 C247.22,343.97 245.08,342.00 244.70,342.00 C244.31,342.00 244.00,352.55 244.00,365.43 C244.00,378.32 243.57,390.00 243.05,391.37 C241.80,394.67 238.59,396.29 234.92,395.48 C230.19,394.44 229.00,390.85 229.00,377.55 C229.00,371.20 228.66,366.00 228.25,366.01 C227.84,366.02 224.65,369.17 221.16,373.03 C211.52,383.70 201.58,389.86 187.28,394.03 C182.42,395.44 176.08,395.96 158.28,396.39 C145.75,396.69 134.02,396.55 132.21,396.08 ZM 278.79 306.09 C291.77,299.41 293.62,282.91 282.35,274.31 C279.08,271.82 277.87,271.53 271.00,271.53 C263.94,271.53 263.03,271.77 259.74,274.51 C254.37,278.99 252.71,283.08 253.19,290.59 C253.52,295.78 254.13,297.59 256.57,300.61 C262.41,307.83 271.20,309.99 278.79,306.09 ZM 88.70 392.37 C88.32,391.98 88.00,388.37 88.00,384.33 L 88.00 377.00 L 97.04 377.00 L 106.08 377.00 L 105.79 384.75 L 105.50 392.50 L 97.45 392.79 C93.03,392.95 89.09,392.76 88.70,392.37 ZM 420.67 392.33 C420.30,391.97 420.00,388.37 420.00,384.33 L 420.00 377.00 L 429.00 377.00 L 438.00 377.00 L 437.99 382.75 C437.96,392.95 437.92,393.00 429.05,393.00 C424.81,393.00 421.03,392.70 420.67,392.33 ZM 420.67 363.33 C420.30,362.97 420.00,359.14 420.00,354.83 L 420.00 347.00 L 428.39 347.00 C435.12,347.00 436.91,347.31 437.39,348.58 C438.47,351.38 438.04,361.56 436.80,362.80 C435.53,364.07 421.85,364.52 420.67,363.33 ZM 88.70 362.37 C88.32,361.98 88.00,358.37 88.00,354.33 L 88.00 347.00 L 97.04 347.00 L 106.08 347.00 L 105.79 354.75 L 105.50 362.50 L 97.45 362.79 C93.03,362.95 89.09,362.76 88.70,362.37 ZM 89.25 333.36 C88.41,333.01 88.00,330.43 88.00,325.52 C88.00,317.17 88.18,316.99 96.33,317.01 C106.00,317.04 106.12,317.15 105.79,325.88 L 105.50 333.50 L 98.00 333.69 C93.88,333.80 89.94,333.65 89.25,333.36 ZM 420.67 333.33 C420.30,332.97 420.00,329.37 420.00,325.33 L 420.00 318.00 L 428.39 318.00 C437.90,318.00 438.00,318.08 438.00,326.00 C438.00,333.84 437.82,334.00 429.06,334.00 C424.81,334.00 421.03,333.70 420.67,333.33 ZM 88.70 303.37 C88.32,302.98 88.00,299.42 88.00,295.46 L 88.00 288.25 L 92.75 287.81 C95.36,287.57 99.43,287.56 101.79,287.79 L 106.08 288.22 L 105.79 295.86 L 105.50 303.50 L 97.45 303.79 C93.03,303.95 89.09,303.76 88.70,303.37 ZM 420.00 295.96 L 420.00 287.92 L 428.75 288.21 L 437.50 288.50 L 437.83 291.97 C438.01,293.88 437.87,297.37 437.52,299.72 L 436.88 304.00 L 428.44 304.00 L 420.00 304.00 L 420.00 295.96 ZM 420.44 274.10 C420.20,273.86 420.00,270.14 420.00,265.83 L 420.00 258.00 L 428.38 258.00 C437.95,258.00 437.96,258.01 437.99,267.71 C438.00,271.96 437.62,273.13 435.95,274.03 C434.06,275.04 421.43,275.10 420.44,274.10 ZM 88.70 273.37 C88.32,272.98 88.00,269.37 88.00,265.33 L 88.00 258.00 L 97.04 258.00 L 106.08 258.00 L 105.79 265.75 L 105.50 273.50 L 97.45 273.79 C93.03,273.95 89.09,273.76 88.70,273.37 ZM 420.70 244.37 C420.32,243.98 420.00,240.12 420.00,235.79 L 420.00 227.92 L 428.75 228.21 L 437.50 228.50 L 437.50 236.50 L 437.50 244.50 L 429.45 244.79 C425.03,244.95 421.09,244.76 420.70,244.37 ZM 88.00 236.00 L 88.00 228.00 L 97.00 228.00 L 106.00 228.00 L 106.00 236.00 L 106.00 244.00 L 97.00 244.00 L 88.00 244.00 L 88.00 236.00 Z" fill="rgb(254,254,253)"/>
</g>
</svg>